PathFileType	4	(X/Y/Z)	C:\Users\Basilio\Documents\Thesis Gigler\squatting_fais\c3dfiles\039\SLS_pre_back3\markers_experimental.trc
DataRate	CameraRate	NumFrames	NumMarkers	Units	OrigDataRate	OrigDataStartFrame	OrigNumFrames
200.000000	200.000000	4	64	mm	200.000000	815	2175
Frame#	Time	FHD			LBHD			RBHD			C7			T10			CLAV			LSHO			LUUPA			LMUPA			LDUPA			LLEP			LMEP			LRAD			LUL			LRFIN			RSHO			RUPA1			RMUPA			RDUPA			RLEP			RMEP			RRAD			RUL			RUFIN			LASI			RASI			USACR			LSACR			RSACR			LTHI1			LTHI2			LTHI3			LTHI4			LLFC			LMFC			LTIB1			LTIB2			LTIB3			LTIB4			LLMAL			LMMAL			LHEE			LMT1			LMT2			LMT5			RTHI			RTHI2			RTHI3			RTHI4			RLFC			RMFC			RTIB1			RTIB2			RTIB3			RTIB4			RLMAL			RMMAL			RHEE			RMT1			RMT2			RMT5			*61			*62			*63			
		X1	Y1	Z1	X2	Y2	Z2	X3	Y3	Z3	X4	Y4	Z4	X5	Y5	Z5	X6	Y6	Z6	X7	Y7	Z7	X8	Y8	Z8	X9	Y9	Z9	X10	Y10	Z10	X11	Y11	Z11	X12	Y12	Z12	X13	Y13	Z13	X14	Y14	Z14	X15	Y15	Z15	X16	Y16	Z16	X17	Y17	Z17	X18	Y18	Z18	X19	Y19	Z19	X20	Y20	Z20	X21	Y21	Z21	X22	Y22	Z22	X23	Y23	Z23	X24	Y24	Z24	X25	Y25	Z25	X26	Y26	Z26	X27	Y27	Z27	X28	Y28	Z28	X29	Y29	Z29	X30	Y30	Z30	X31	Y31	Z31	X32	Y32	Z32	X33	Y33	Z33	X34	Y34	Z34	X35	Y35	Z35	X36	Y36	Z36	X37	Y37	Z37	X38	Y38	Z38	X39	Y39	Z39	X40	Y40	Z40	X41	Y41	Z41	X42	Y42	Z42	X43	Y43	Z43	X44	Y44	Z44	X45	Y45	Z45	X46	Y46	Z46	X47	Y47	Z47	X48	Y48	Z48	X49	Y49	Z49	X50	Y50	Z50	X51	Y51	Z51	X52	Y52	Z52	X53	Y53	Z53	X54	Y54	Z54	X55	Y55	Z55	X56	Y56	Z56	X57	Y57	Z57	X58	Y58	Z58	X59	Y59	Z59	X60	Y60	Z60	X61	Y61	Z61	X62	Y62	Z62	X63	Y63	Z63	X64	Y64	Z64	

816	4.075	-233.0758972167969	1721.361450195313	-668.5263061523439	-395.4631652832032	1707.610595703125	-786.3812255859377	-364.9446105957032	1709.011474609375	-647.8072509765626	-448.0597534179689	1542.81103515625	-725.0632324218751	-481.3161010742189	1235.476806640625	-753.0356445312501	nan	nan	nan	-382.8487854003907	1562.558227539063	-877.0233154296877	-223.7102813720704	1534.060546875	-997.8440551757815	-199.8683319091797	1565.737060546875	-967.0288696289065	-154.7972717285157	1546.467163085938	-1001.418762207031	-87.60642242431642	1556.415161132813	-999.1319580078127	-79.42579650878908	1484.610229492188	-970.2791748046877	189.7854309082032	1593.907958984375	-907.1793212890627	189.2441558837891	1606.351318359375	-982.8018188476565	264.3594970703126	1640.72900390625	-897.3800048828127	-330.4479064941407	1540.362670898438	-573.5681152343751	-166.8224029541016	1478.590942382813	-477.1845092773439	-142.0726013183594	1513.572387695313	-502.719207763672	-97.57573699951175	1480.037353515625	-479.4641113281251	-35.94811248779298	1498.031372070313	-491.6701660156251	-28.21692276000977	1432.0322265625	-532.4528198242189	244.7313537597657	1562.379638671875	-584.4901123046876	249.5918426513672	1551.029541015625	-509.6969299316407	323.1712951660157	1610.791137695313	-582.5191040039064	-335.8655395507813	1045.772827148438	-894.4829101562502	-311.1857299804688	1027.48681640625	-673.6375732421876	-501.9991760253907	1105.636840820313	-757.6885986328126	-509.9812622070314	1074.373901367188	-786.4126586914065	-502.2934570312501	1071.458374023438	-726.9604492187501	-367.4048767089844	781.255798339844	-999.1355590820315	-318.8565368652344	713.8388061523439	-1019.268249511719	-272.1653747558594	723.2859497070314	-1017.25830078125	-333.6017761230469	653.6049194335939	-1010.100219726563	-312.3233642578126	567.7720336914064	-1010.1923828125	-271.9909362792969	520.2503051757814	-911.1033325195315	-389.3324279785157	453.5679016113282	-978.8259277343752	-457.2750854492189	510.9635009765626	-991.8160400390627	-447.4612426757814	469.3944091796876	-985.9099731445315	-506.5596313476564	439.8131103515626	-928.525329589844	-693.2709350585939	450.3242187500001	-900.1125488281252	-649.9606933593751	428.3726501464845	-827.0769042968752	-712.7103881835939	514.0787963867189	-845.5123291015627	-709.2996826171876	282.8357849121094	-807.7641601562502	-738.6780395507814	285.3609008789063	-839.2051391601565	-789.7272949218752	327.8281860351563	-861.2907714843752	-294.8207702636719	765.6628417968751	-613.4963378906251	-240.2346191406251	726.6159667968751	-616.7964477539064	-211.2452392578126	739.1126098632814	-624.4922485351564	-242.6816101074219	642.1248779296876	-632.8598022460939	-242.808334350586	511.519500732422	-668.3895263671876	-214.2702636718751	517.6776733398439	-781.9231567382815	-240.0377960205079	306.5830078125001	-715.3206176757814	-336.6574096679688	257.8542785644532	-709.8054809570314	-293.0725097656251	241.0423583984376	-715.7672729492189	-285.0343933105469	194.9971771240235	-754.1695556640626	-368.2792358398438	114.4972076416016	-740.0942993164064	-338.4220886230469	136.4983520507813	-823.763854980469	-440.1667480468751	96.78060150146487	-793.9759521484377	-215.2017059326172	54.93782424926759	-806.4279785156252	-219.0811309814454	56.00868225097658	-760.4968261718751	-274.0980529785157	36.14690017700196	-709.1168212890626	nan	nan	nan	nan	nan	nan	nan	nan	nan	
817	4.08	-232.902572631836	1720.852294921875	-668.5230712890626	-394.0482482910157	1706.674682617188	-786.3680419921877	-364.6006774902344	1708.345458984375	-647.9127807617189	-447.6199951171876	1541.957885742188	-725.1946411132814	-481.3774414062501	1234.837524414063	-752.9246215820314	nan	nan	nan	-383.2687683105469	1561.980346679688	-877.3459472656252	-223.3947753906251	1533.442626953125	-997.8229980468752	-199.5789489746094	1565.050048828125	-967.0959472656252	-154.5198822021485	1545.830810546875	-1001.38037109375	-87.38372039794923	1555.881713867188	-999.2039794921877	-79.0745086669922	1483.888427734375	-970.3713989257815	190.1432800292969	1593.2451171875	-907.2513427734377	189.4950103759766	1605.722778320313	-982.8653564453127	264.5170898437501	1640.105224609375	-897.542907714844	-330.4415588378907	1539.707275390625	-573.4945068359376	-166.676742553711	1477.826904296875	-477.1724243164064	-141.9476318359375	1513.010009765625	-502.725799560547	-97.37376403808597	1479.466430664063	-479.5158996582032	-35.78596496582032	1497.340454101563	-491.5936889648439	-28.23445129394532	1431.203247070313	-532.7148437500001	244.7658996582032	1561.781494140625	-584.3395385742189	249.7681274414063	1550.31591796875	-509.5169067382814	323.2587890625001	1610.20654296875	-582.4071655273439	-336.1384887695313	1044.995239257813	-894.376403808594	-311.2698974609376	1026.705688476563	-673.5528564453126	-502.0991210937501	1104.999755859375	-757.5775756835939	-510.1184082031251	1073.780029296875	-786.299987792969	-502.503631591797	1070.765991210938	-726.7392578125001	-367.8062744140626	780.5510253906252	-999.0596923828127	-319.2613525390626	712.9895019531251	-1019.024047851563	-272.4405822753907	722.3661499023439	-1017.110046386719	-333.8072509765626	653.0958251953126	-1009.861877441406	-312.9244384765626	567.0817260742189	-1009.963562011719	-272.4975585937501	519.5132446289064	-910.903747558594	-389.7005920410157	452.3543395996095	-978.4085693359377	-457.7474365234376	510.4886169433595	-991.6469726562502	-448.085662841797	468.8484497070314	-985.7759399414065	-507.0538330078126	439.1840209960939	-928.3037719726565	-693.8906860351564	450.0810852050782	-899.9742431640627	-650.2740478515626	427.3742065429689	-827.0671386718752	-713.0774536132814	513.9419555664064	-845.3790283203127	-710.0729980468751	282.8497009277344	-807.3565063476565	-739.2521972656251	285.9214477539063	-838.8704833984377	-790.7493286132815	328.2513427734376	-860.9434204101565	-294.5028381347657	765.1833496093751	-613.6115722656251	-239.7464752197266	726.2418212890626	-616.8627929687501	-210.8216857910157	738.7831420898439	-624.5469970703126	-242.0451660156251	641.7271728515626	-632.9340209960939	-242.3174743652344	511.0430603027345	-668.6173706054689	-213.3424987792969	517.3877563476564	-782.1619873046877	-239.666976928711	306.3507995605469	-715.5089111328126	-336.2954406738282	257.7623596191407	-709.9658203125001	-292.7502441406251	241.0250091552735	-715.8303833007814	-284.7628784179688	194.8370513916016	-754.2941284179689	-368.2262878417969	114.4340362548828	-740.1600952148439	-338.4818420410157	136.4526672363282	-823.894226074219	-440.1476440429689	96.77454376220706	-793.9793090820315	-215.210433959961	54.85716247558595	-806.4603271484377	-219.0876617431641	55.98293304443361	-760.5198974609376	-274.0469970703126	36.13533401489259	-709.1164550781251	nan	nan	nan	nan	nan	nan	nan	nan	nan	
818	4.085	-232.6419067382813	1720.353515625	-668.7080688476564	-394.2866210937501	1706.061279296875	-786.4462890625002	-364.5129699707032	1707.832275390625	-647.9392089843751	-447.4401855468751	1541.247802734375	-725.1997070312501	-481.3313903808595	1234.311279296875	-752.9083862304689	nan	nan	nan	-382.2932434082032	1561.194091796875	-877.235046386719	-223.1902313232422	1532.755859375	-997.8457641601565	-199.2006378173829	1564.351196289063	-967.051940917969	-154.2185821533203	1545.119018554688	-1001.4052734375	-87.00781250000001	1555.33984375	-999.1918945312502	-78.77185821533205	1483.078979492188	-970.484558105469	190.6671295166016	1591.7470703125	-907.1217041015627	189.7318420410157	1605.203979492188	-982.9061279296877	264.9476928710938	1639.50634765625	-897.5677490234377	-330.2158813476563	1538.873779296875	-573.5114135742189	-166.6189422607422	1477.252075195313	-477.0549926757814	-141.8166656494141	1512.395385742188	-502.7021484375001	-97.20570373535159	1478.634399414063	-479.416717529297	-35.67875289916993	1496.609008789063	-491.538055419922	-27.85449218750001	1430.77783203125	-532.4079589843751	244.9790954589844	1561.137329101563	-584.3641357421876	250.2135772705079	1549.814331054688	-509.2290039062501	323.5168762207032	1609.580932617188	-582.3734741210939	-336.1508789062501	1044.246826171875	-894.309509277344	-311.2607727050782	1026.216064453125	-673.6008911132814	-502.0360412597657	1104.344360351563	-757.5551757812501	-510.1389770507814	1073.146606445313	-786.2375488281252	-502.582733154297	1070.28271484375	-726.7947387695314	-368.0552673339844	779.8100585937502	-998.919128417969	-319.5353393554688	712.1411132812501	-1018.859497070313	-272.8703308105469	721.6245117187501	-1016.897583007813	-334.2437133789063	652.3200683593751	-1009.649047851563	-313.3743591308594	566.4085693359376	-1009.769836425781	-272.7327575683594	518.4561157226564	-910.7966308593752	-390.3164367675782	451.7106018066407	-978.170349121094	-458.3155212402345	509.9669189453126	-991.4891357421877	-448.5708007812501	468.1691894531251	-985.5527343750002	-507.6564941406251	438.7347717285157	-928.0593261718752	-694.4380493164064	449.7926025390626	-899.750915527344	-651.1663208007814	427.8561096191407	-827.0000000000002	-713.5769653320314	513.7380981445314	-845.2864379882815	-711.0208129882814	282.6042175292969	-807.1907958984377	-740.2320556640626	285.6796875000001	-838.5730590820315	-791.7752075195315	328.2599792480469	-860.6843261718752	-294.1909790039063	764.7494506835939	-613.4405517578126	-239.3743438720704	725.9142456054689	-617.0197753906251	-210.3063049316407	738.6495361328126	-624.6652832031251	-241.4582519531251	641.4696655273439	-632.9624023437501	-241.5135040283204	510.7766418457032	-668.6523437500001	-212.6012115478516	517.1268310546876	-782.2725219726565	-239.3458099365235	306.2315673828126	-715.5687866210939	-336.0403137207032	257.7687377929688	-709.9981079101564	-292.4984741210938	240.9554290771485	-715.8800659179689	-284.5681762695313	194.7742767333985	-754.5223999023439	-368.2149963378907	114.4938735961914	-740.2289428710939	-338.3021240234376	136.6977233886719	-823.8786621093752	-440.1398010253907	96.7682800292969	-794.018981933594	-215.2066345214844	54.80365371704103	-806.4648437500002	-219.1008605957032	55.90066528320314	-760.5134887695314	-274.0403442382813	36.15148162841798	-709.1193847656251	nan	nan	nan	nan	nan	nan	nan	nan	nan	
819	4.09	-232.4512329101563	1719.39013671875	-668.8231201171876	-394.7582397460939	1705.465576171875	-786.4722290039065	-364.3618164062501	1707.011962890625	-647.8823852539064	-447.3733520507814	1540.691162109375	-725.2641601562501	-481.2610168457032	1233.774291992188	-752.8947143554689	nan	nan	nan	-382.2859497070313	1560.625732421875	-877.208923339844	-222.8654174804688	1532.121948242188	-997.9537353515627	-199.0764617919922	1563.676147460938	-967.068786621094	-154.1101837158203	1544.638549804688	-1001.439270019531	-86.73811340332033	1554.484130859375	-999.148620605469	-78.58184814453126	1482.380493164063	-970.3199462890627	190.7337951660157	1591.72265625	-907.193054199219	190.0422058105469	1604.59765625	-982.9125976562502	265.4216003417969	1639.2001953125	-897.6644287109377	-330.0531005859376	1538.231201171875	-573.6061401367189	-166.5876922607422	1476.715454101563	-476.9301757812501	-141.468246459961	1511.895141601563	-502.5484008789064	-97.08708190917972	1478.032836914063	-479.260711669922	-35.59564590454102	1495.989868164063	-491.5420837402345	-27.76472473144532	1429.762817382813	-532.4468994140626	245.1715240478516	1560.51953125	-584.2733154296876	250.2966003417969	1549.031494140625	-509.4663696289064	323.6235351562501	1608.89599609375	-582.2318725585939	-336.1482849121094	1043.553955078125	-894.3765869140627	-311.4073181152344	1025.616333007813	-673.6543579101564	-502.1364135742189	1103.766235351563	-757.5036621093751	-510.3707275390626	1072.741455078125	-786.2393188476565	-502.5914611816407	1069.752807617188	-726.7648315429689	-368.2318115234376	779.041931152344	-998.773620605469	-319.9529418945313	711.4937133789064	-1018.782897949219	-273.6984558105469	721.2542724609376	-1016.940490722656	-334.1397094726563	651.4434204101564	-1009.299621582031	-313.6003417968751	565.4905395507814	-1009.642517089844	-273.3412475585938	517.9076538085939	-910.4217529296877	-391.1000061035157	451.4588317871095	-978.1511230468752	-458.8866271972657	509.4978332519532	-991.2720336914065	-449.0789489746095	467.615692138672	-985.3468017578127	-508.2036132812501	438.2837219238282	-927.6627197265627	-695.0463867187501	449.5097045898439	-899.541442871094	-651.6525878906251	427.2186279296876	-826.8276977539065	-713.9629516601564	513.5208129882814	-845.2349853515627	-711.9584960937501	282.2255859375001	-806.7817993164065	-741.2091674804689	285.5043029785157	-838.2042236328127	-792.5237426757815	328.2008972167969	-860.3467407226565	-294.0899353027344	763.9829711914064	-613.7059936523439	-238.9776153564454	725.5648193359376	-616.9937133789064	-209.7414855957032	738.3991088867189	-625.0070190429689	-240.8577423095704	641.1046142578126	-633.0722656250001	-240.5699615478516	510.4902954101564	-668.4666137695314	-212.1135559082032	516.8726806640626	-782.3228149414065	-238.9835052490235	306.0243835449219	-715.6090698242189	-335.6254882812501	257.6867675781251	-710.1931152343751	-292.1994934082032	240.7591094970704	-715.9400634765626	-284.3088684082032	194.5893859863282	-754.6915283203126	-368.1776428222657	114.4838256835938	-740.2629394531251	-338.2893981933594	136.6259002685547	-823.9337158203127	-440.1256408691407	96.75054168701175	-794.0110473632815	-215.2574615478516	54.76287078857423	-806.513610839844	-219.1096191406251	55.94773483276369	-760.5711059570314	-274.0353393554688	36.18852996826173	-709.1593627929689	nan	nan	nan	nan	nan	nan	nan	nan	nan	
